/* XPM */
static char *result[] = {
/* columns rows colors chars-per-pixel */
"15 30 3 1 ",
"  c #FEFE00",
". c yellow",
"X c None",
/* pixels */
"XXXXXXXXXXXXXXX",
"XXXXXXXXXXXXXXX",
"XXXXXXXXXXXXXXX",
"XXXXXXXXXXXXXXX",
"XXXXXXXXXXXXXXX",
"XXXX..XXXXXXXXX",
"XXXX...XXXXXXXX",
"XXX ...XXXXXXXX",
"X.. XX ..XXXXXX",
"X.. XX ..XXXXXX",
"X.. XX ..XXXXXX",
"XXXXXX ..XXXXXX",
"XXXXXX ..XXXXXX",
"XXXXXX ..XXXXXX",
"XXXXXX ..XXXXXX",
"XXXXXX ..XXXXXX",
"XXXXXX ..XXXXXX",
"XXXXXX ..XXXXXX",
"XXXXXX ..XXXXXX",
"XXXXXX ..XXXXXX",
"XXXXXX ..XXXXXX",
"XXXXXX ..XXXXXX",
"XXXXXX ..XXXXXX",
"XXXXXX ..XXXXXX",
"XXXXXXXXXXXXXXX",
"XXXXXXXXXXXXXXX",
"XXXXXXXXXXXXXXX",
"XXXXXXXXXXXXXXX",
"XXXXXXXXXXXXXXX",
"XXXXXXXXXXXXXXX"
};
