/* XPM */
static char *result[] = {
/* columns rows colors chars-per-pixel */
"15 30 3 1 ",
"  c #FEFE00",
". c yellow",
"X c None",
/* pixels */
"XXXXXXXXXXXXXXX",
"XXXXXXXXXXXXXXX",
"XXXXXXXXXXXXXXX",
"XXXXXXXXXXXXXXX",
"XXXXXXXXXXXXXXX",
"XXXX....... XXX",
"XXXX....... XXX",
"XXX ....... XXX",
"X.. XXXXXXXX...",
"X.. XXXXXXXX...",
"X.. XXXXXXXX...",
"XXXXXXXXXXXX...",
"XXXXXXXXXXXX...",
"XXXX        ..X",
"XXXX....... XXX",
"XXXX....... XXX",
"XXXXXXXXXXXX...",
"XXXXXXXXXXXX...",
"XXXXXXXXXXXX...",
"X.. XXXXXXXX...",
"X.. XXXXXXXX...",
"X             X",
"XXXX....... XXX",
"XXXX....... XXX",
"XXXXXXXXXXXXXXX",
"XXXXXXXXXXXXXXX",
"XXXXXXXXXXXXXXX",
"XXXXXXXXXXXXXXX",
"XXXXXXXXXXXXXXX",
"XXXXXXXXXXXXXXX"
};
