/* XPM */
static char *result[] = {
/* columns rows colors chars-per-pixel */
"15 30 3 1 ",
"  c #FEFE00",
". c yellow",
"X c None",
/* pixels */
"XXXXXXXXXXXXXXX",
"XXXXXXXXXXXXXXX",
"XXXXXXXXXXXXXXX",
"XXXXXXXXXXXXXXX",
"XXXXXXXXXXXXXXX",
"XXXXXXXXX..... ",
"XXXXXXXXX......",
"XXXXXXXXX......",
"XXXXXX ..XXX...",
"XXXXXX ..XXX...",
"XXXX.. ..XXX...",
"XXXX...XXXXX...",
"XXXX...XXXXX...",
"X   ..XXXXXX...",
"X.. XXXXXXXX...",
"X.. XXXXXXXX...",
"X..............",
"X..............",
"X.......... ...",
"XXXXXXXXXXXX...",
"XXXXXXXXXXXX...",
"XXXXXXXXXXXX...",
"XXXXXXXXXXXX...",
"XXXXXXXXXXXX...",
"XXXXXXXXXXXXXXX",
"XXXXXXXXXXXXXXX",
"XXXXXXXXXXXXXXX",
"XXXXXXXXXXXXXXX",
"XXXXXXXXXXXXXXX",
"XXXXXXXXXXXXXXX"
};
