/* XPM */
static char *result[] = {
/* columns rows colors chars-per-pixel */
"25 25 4 1 ",
"  c #E73838",
". c #2121FF",
"X c #E0DDFF",
"o c None",
/* pixels */
"ooooooooooooooooooooooooo",
"ooooooooooooooooooooooooo",
"ooooooooooooooooooooooooo",
"ooooooooooooooooooooooooo",
"ooooooooooooooooooooooooo",
"ooooooooooooooooooooooooo",
"ooooooooooo    oooooooooo",
"ooooooooo        oooooooo",
"oooooooo          ooooooo",
"ooooooo XX    XX   oooooo",
"oooooooXXXX  XXXX  oooooo",
"ooooooo..XX  ..XX  oooooo",
"oooooo ..XX  ..XX   ooooo",
"oooooo  XX    XX    ooooo",
"oooooo              ooooo",
"oooooo              ooooo",
"oooooo              ooooo",
"oooooo              ooooo",
"oooooo  o   oo   o  ooooo",
"oooooo ooo  oo  ooo ooooo",
"ooooooooooooooooooooooooo",
"ooooooooooooooooooooooooo",
"ooooooooooooooooooooooooo",
"ooooooooooooooooooooooooo",
"ooooooooooooooooooooooooo"
};
