/* XPM */
static char *result[] = {
/* columns rows colors chars-per-pixel */
"100 100 37 1 ",
"  c #0F151F",
". c #0E1C1E",
"X c #0E241D",
"o c #0D2B1C",
"O c #0D331A",
"+ c #0C3B19",
"@ c #0F0F20",
"# c #0F1120",
"$ c #0C4617",
"% c #0B4C17",
"& c #0C4318",
"* c #0C4818",
"= c #0B5415",
"- c #0A5B14",
"; c #097D0F",
": c #0A6313",
"> c #0A6B12",
", c #097411",
"< c #097A10",
"1 c #07870E",
"2 c #08840E",
"3 c #078C0D",
"4 c #088B0D",
"5 c #07940C",
"6 c #08920C",
"7 c #079B0A",
"8 c #06AE07",
"9 c #06A309",
"0 c #06AB08",
"q c #05B407",
"w c #05BB06",
"e c #05B008",
"r c #04C304",
"t c #04CB03",
"y c #03D302",
"u c #03DF00",
"i c #03E000",
/* pixels */
"@@@@@@@@@@@@@@@@@@@@@@@@@@@@@@@@@@#@@##     .. ..... .   . #####@@@@@@@@@@@@@@@@@@@@@@@@@@@@@@@@@@@@",
"@@@@@@@@@@@@@@@@@@@@@@@@@@@@@@@@@@     ...XXXXXXXXXXXXXX.XX  . ###@@@@@@@@@@@@@@@@@@@@@@@@@@@@@@@@@@",
"@@@@@@@@@@@@@@@@@@@@@@@@@@@@@@### . .XXXoXXoooooooooooXooXXXXX..  ##@@@@@@@@@@@@@@@@@@@@@@@@@@@@@@@@",
"@@@@@@@@@@@@@@@@@@@@@@@@@@@@##  ..XXXoooooOOOOOOOO+OOOOOOoOooXoXXX.  #@@@@@@@@@@@@@@@@@@@@@@@@@@@@@@",
"@@@@@@@@@@@@@@@@@@@@@@@@@@#  ..XXXoooOOO+O+++++++&++++++O+OOOooooXXXX   @@@@@@@@@@@@@@@@@@@@@@@@@@@@",
"@@@@@@@@@@@@@@@@@@@@@@@#@#  .XXoooOO+O+++++$&&$$$$$$$$&&&&+++O+OOoooXXX .#@#@@@@@@@@@@@@@@@@@@@@@@@@",
"@@@@@@@@@@@@@@@@@@@@@@##  XXXoooOO+++$&&$%$%%%=%%=%%%%%%%$$$$++++OOOooXX.. #@@@@@@@@@@@@@@@@@@@@@@@@",
"@@@@@@@@@@@@@@@@@@@@@#  .XXooOO++++$$$%$%%=========-=====%%%%$$$&+OOOOooXX.. #@@@@@@@@@@@@@@@@@@@@@@",
"@@@@@@@@@@@@@@@@@@@@# .XXoooO++&$$**%====-=--------:-----====%%%$$$&++OOooXX..#@@@@@@@@@@@@@@@@@@@@@",
"@@@@@@@@@@@@@@@@@@@  XXXoOO+++&$*%%==----::::::>>>::::::-:----==%%$$&&++OOoX...#@@@@@@@@@@@@@@@@@@@@",
"@@@@@@@@@@@@@@@@## .XXooOO+&$$%%==--:-:::>>>>>>,>>>>>>>>>:::::---===$$&++OOooXX. #@@@@@@@@@@@@@@@@@@",
"@@@@@@@@@@@@@@@@# .XXoOO++&$%%==---:::>>>,>,,<<,<;;,,;<,,,,>>>::---===*$&++OOoXX. #@@@@@@@@@@@@@@@@@",
"@@@@@@@@@@@@@@@#..XXoOO+&$$%==--:::>>,,,;<;;;;;2;2;;<2;;;<<<,>>>:::--==%%&++OOooX.  ##@@@@@@@@@@@@@@",
"@@@@@@@@@@@@@@#..XooO++&$%==--::>>>,<<<;;;222212214124222;;;<<,,>>>::--==%$&++OooX. ##@@@@@@@@@@@@@@",
"@@@@@@@@@@@@@  .XoOO++$*%=--::>>>,<;;;22244433366346333442222;;;<,>>>::-==%%&++OooX.  @@@@@@@@@@@@@@",
"@@@@@@@@@@@@@.XXooO+&$*==--::>>,<;;;224446666767677657566634442;;;<<>>:::-=%%$&+OOoXX #@@@@@@@@@@@@@",
"@@@@@@@@@@@  .XooO+&$%%=-::>>,<;<211335557777797997979777775663412<<<,>>:--==*$&++ooX..#@@@@@@@@@@@@",
"@@@@@@@@@@  .XoO++&%%=--->>,,;;2443655777799009000090999997776634442<<,,>>:-==%*&+OOoX..#@@@@@@@@@@@",
"@@@@@@@@@@..oooO+&$%=--:>>,<;2213657779900008eee888888880099977756412<<<,>>::-=%$++OOoX  #@@@@@@@@@@",
"@@@@@@@@@ ..ooO+&$%==::>>,<222165777900888qqqwqwwwwwwwqq8888099977563422<<>>:--=%*&+OooX. @@@@@@@@@@",
"@@@@@@@@  XooO++$%=-::>>,;223355799988qeqwwwwrrrrrwrrwwwwwqqq88999756641;<,>>::==%$&+OooX.#@@@@@@@@@",
"@@@@@@@ ..XoO++*%=--:>><;2216579998eeqqwwrrrrrtrrtttrttrrrwwqqqq0999766422<<,>:--=%$++OoX..#@@@@@@@@",
"@@@@@@@ .XoO++*%==-:>><;213657998eeqwwrrrtttyyyyytyyytyttrrrrwqwe0099766342;<>>::-=*&++OoX.#@@@@@@@@",
"@@@@@@ .XXoO+*%%=-:>,<;213677990eqwwrrttttyyyuyyuuuyuyyyyyytrrrwwwe899965322;,,>:-==%&+OoXX. @@@@@@@",
"@@@@@# .XoO+&*%=-::,,;216577908qwwrrttyyyyuuuuuiiuuiuiuuuyyyyytrrwqq009975322<<>::-=%%&+OoX..@@@@@@@",
"@@@@@ .XoO++*%=-:>>,;21367790qqwwrrttyyuuiiuuuiiuuiuiuuiiuiyyyyttrwww800975322<,>>:-=%$++OoX. @@@@@@",
"@@@@#..ooO+&%=-->><;;2357998qqwrrtttyuuuuiiiiuiuiuiiuuiuiuiiiyyyttrrwqe09776322<,>:-==%&+Ooo..#@@@@@",
"@@@@ .XoO+&$%=-:>><;2357790qqwrrtyuuuiiiuiiiiiuiuiuiuiuiuiiuiuuuyytrrwq88997634<<,>:--%*++OoX.##@@@@",
"@@@@ XXoO+&%=-:>><;2355790qqwrttyyuuiiiiuiiiiiuuiiiiiuiiiiiuiiiiuyyttrwq88977642<<>>:-=%$+OoX..#@@@@",
"@@@ .XoO+&*==-:>,;2235790qqwrtyyuuuiiiiuiiiuiiiiiuuiiiiuiuuiiiiuuuuyttrww80975342<<>:-==$&+OoX.#@@@@",
"@@@ .XoO+&%=-:>,<;2357708qwrttyyuuiiiiiuuiiiiiiuiuiiiiiiiuuiuiiuuuuuyyrrwq8097632<<,>:-=%&+OOXX #@@@",
"@@#.XoO+&*==::>,;2357908qwrrtyuiuuiiiuuiuiiiuuiuuiuiiiiuiiiiiiiiuuuuuyyrrwq8977642<<>:--=%&OOoX.##@@",
"## .XoO+**=-:>><2165790qwwttyuiuuuiiuiuiuiiuiiuiuuiiiiuiiiuuiiiiiiiuiyyttrqq0975442<,>:-%%$+OoX. @@@",
"###Xoo++*==->>,<2465908qwrtyyuuiuiiiiiuuiiuiuuiiiiuiuuuuuuiiuuuiuiuiiiuytrrqq077642<,>:--%$++OoX #@@",
"@ .XoO+&*=-:>><2265990qwrttyuuuiuiiiiuiiiuuuiuiiiiiiiiuiiiuiiuuiuuiuiiuyytrwq0977422,,>:-=%&+OoX. @@",
"@ .ooO+**=-:>,;2467908qrrtyuiiiuiiuuuiuiiiiiiiuuiuuiiiuiiuiiuuuiiiiuiiiyytrww8097642;,>:-=%$+OoX. @@",
"@XXoOO&*==::>;22457088wrttuuiuuiiuuiiuuiuuiiiuiuiiuiiiiuiiuiuiuuuuiiiuiiyytrw8097644;,,:--%$+OOoX #@",
"@#XoO+&*=-:>><2265708wrrtuuuiuiiuiiiiiiiiiiiiiuiiiiiiuiuiiuiiiuiiiiiiuiuuyttww0097642<,>:-=%&+OoX.#@",
"#XXoO+*%=-:>,;246790qwrtyyuuuiiiiuuiiuuuuuiiuuiuiuiuiiuiiiiiuiiuiiiiuuuiiyytrw8097642<,>:-=%$+OoX. @",
"##XoO+*%-->><;445700qwrtyuuuiuiiuuiuiiiiiiiiiiuiuiiiiiuiiuuiiiiiuiuiiiiuuuytrrqq975622,,>--%%+Ooo. @",
"#ooo+&*=-::,<246790ewrrtyuuiuiiiiuiuiiuiiiiiuuiiuiiuuiiiiuiuuuiiiuiuiuiiuiytrrw8095612<,:--=%++oXX.@",
"#XoO++*=-:>><246790qwrtyuuuiiuiiiiiiuiiuiuuuiiiiiiuiuiiuiuiiiuiiiiiuiuiiuuuytrwq897642<,>:-=%&+OoX.#",
"XXoO+&*=-:>,<24579eqwrtuuuuiiuiiiiiuuiuiiiiiuuiuuiuiiuuiiiiiuiiuiuuuiiiiiuuytrwq897532<<>:-=%$+OoX #",
"#ooO+*%=->>,226570eqrttyiiuiiiuiuiuiiiiiiuuiiiiuuiiiuiiiuuiiuiiuiiiiuiiuiuuuttww897762<<>:-=%$+OoX#.",
"#XoO+*%=->><216570ewrttuuuiuuiuiuiiiuuiiiiuiiuiiiiiiiiiuuiiuuuuiuiuiiiiiuuiuytwqq07744<<,:--%$+OoX. ",
"XXOO+*==->><216770qqrryyiiuuiiiuiuiuiiuiuiiiiuiiiuuuiuuiuiiuiiiuuiuuiuuiiiuuytrw809534<<,:--%$+OOX. ",
"XXo++$%=->,<<16590ewrtyuuiuuiiiuiuuiuiuuuiiiiuuiuuiiuiuiuiiiiiuiuuiiiuiiiiuuytrw8097642<,::==%++ooX ",
"#oOO&*=-::,<246790errttuuiiiiiiiuiiiiiiuiiiuuiiiiiiuiuiuuiuuiiuuiiiuiiuuiiuyytrwq897642<,>--%*&OOX.#",
"XXo+&*=-:>,<2457908wrtyuiuiuiuuiiuuiiuiiiiiuiuiuuiiuiuiiuuuiuuiiuiiuiiuuiiiuyyrwq09751;;,>:==*&+oo. ",
"Xoo+&*%=->,<<35798qrrttuiuiuuiiiuiiuiuuiiuuuiiiiuiiiiuiiiiiiiuuuiuiuiuuiiuuuytrwq897512<>>:-=*+OOX. ",
"XXOO+*=-:>><2155988rttuuiuiiuiiiuiuiiiiiiiiiuiiuiuuiuiuuuiuiiiuiiiiiiuiiuuiuyyrwq895542<,>--=*++ooX ",
".oo+&*==:>,<245798qwrtyuiiuuuiiiuiiiiiuiiuiiuuiiiiiuiiiiiuiuiiuiiuiiuiiuiuuuytrwq097542<>>:-%$&OOXX ",
".Xo+&*==:>><2457908wttyuiiiuiuiiuiuuiiiiuiuiuuuiuuiuiuuiiiiuiiiiiiiiuuuiuuuuytrwq097512<,>--=$++oX.#",
"XXoO&$=--:,<<437908wrttuuiuiiiiiiiiiuiuiuiiuiiiiiiuiuiiiuiiuuiiuuiuiiiiuiuuuytrwq095512<,:--%%&OOXX.",
".XO++$%=::,<;467998wrttuuuuuiiuuiuuiuiuuiiiiuiuuiuuiiuuuuiiiiiiiiiiiiiiiuuiyytwwq095512<,::=%*+OoX.#",
".XoO+*%=::><;435908qrrtuiiiiiiiiuiuiiiiiiuiuiuiiiuiiiiiiiiiuuiiuuuiuuiiuiiiuttrw807732;<>::=%$&OoX.#",
".XoO+$%=-:><<237798qrrtuuuuiiiiuiiuiuiiiiiiiuuuiuiuuiiuiiiiiiiiiiiiiuuiuuiiyyrrq8975322,>:-=%$+OoX.#",
".XoO+$*=-:><<245798qwrtyuiuiuuuiuiuiiuuuiuiuiiiuiuiiiiiuiiuiuuiuiiuuiiiiiiuytrwq897532;,>:-=%&+OoX.#",
" XoO++*=-:>,<2467988wrtyuuiiiuiuiiuiiiiiuiiiiuiiiuuiuuuiuuiuiiiuuuiiuiuiiuuytrwq097542;,>:-=%&+Oo..@",
"..Xo+&$=-->><2437708wrrtyuiuuiiiiuiiiiuiiiuiiuuuuiuiiiiiiiuiuiiiiiiuuuiuiuyttwq8995522,>>:==$++oo..#",
" .XOO&$%=-:>,;235798qwrtyuuuiiiiuuuiiiuiuiiiuiiuiuiuuiiuiuiuuiiiuiiuiiiuiuytrwq807532;;>::-%$&OoX. #",
"#.XoO+&%=-:>,<235798qwrttuuuiiuuiiuuiiiiiuiuiuuiiuuiiuuiiuiiiuiiiiuiuiiiiyytrwq897532;,>:-%%&+OoX. @",
"##XXO+&*=-:>,;2467708wwrtyuuiiiuiiiiiiuiiiiuiuiiuiuiiiiuiiiuuiuiiiuiuiuiuytrwq8077522;,::-=%&+OoX.#@",
"#..oo++$%-::>,;2457988wrttyuuuuuiiiiiiuiuuiiiiuiuuuiuuiuiiiiiiiiuiuiiiiiyttrwq097532;,>>-=%%+OOX. @@",
"# .XoO+*%=-:>,;2255908qwrtyuuuiiiiiuiuiuiuuiuiuiiiiuiiuuiuiiiiiuuiiuiuuyytrwqe077612;,>:-=%$+OoX. @@",
"##.XoO+&$=-:>>;;266798qwrttyuuiuuuiuiiiiuiiiiiiiiuuiiiiiiiuiiiuuiuuuuiuuttrwq0975322<>:--=%&+OoX. @@",
"@# XXOO+$%--:>,;2157798qwrtyyuuiiiiiuuiiiuiiiiiiiiiuiiuuiuuiiiuiiuiiuuyytrwq8997642;<>::=%*++oXX @@@",
"@@ .XoO+&%=-::,,2235790qwwrtyuuiiiuuiiuuiuiiiiiuiiiuiuuiiiuiiiuiiiiuuyytrww8097532;<,::-=%&+Ooo  @@@",
"@@ .XoOO+%%=::>,;2466990qwrrtyuuuuuuiuiuiiiuiiuiuiiuiiuiuiuuiiiiiiiiyytrrqq0996612<,>:-=%%++OoX  @@@",
"@@@ .XoO+&%=-::,,;2367990qwrrtyyuuuiiuiuiuuuiuiiiiuiiiuiiiiiiiiiiiiyyttrwq8097642;;>>:-=%$+OoXX#@@@@",
"@@@#.XoO+&$%=-:>,;;2367998qwrrtyyuuiiuiiiuuuiiuuiuuiiuuiiiiuiuiiiuyyttrwee0975342;>>:-=%%++OoX.#@@@@",
"@@@# XXoO+&%=-->><;21677908qwrrtyyuiuiiiuiiiiuiuuiiuuiiuuiiuiuiiuyytrrw880975622;<>>--=%$+OoX. #@@@@",
"@@@@ .XoO++$%=-:>,<;21657988qwrrttyyuiiiiiuuiuiuiiuiiiiiuuuiiiuyyttrrwq80977642;,>>:-=%$++OoX. #@@@@",
"@@@@# .XoO+&%%--:>><22357790eqwwrttyyyyuuuiiiiuiiiuuiuiiuiiuuuyyttrwwq80976642;;,>:-==%&+OoX  ##@@@@",
"@@@@@ .XooO&$%==-:><<223669998qwwrrtyyyuuuiuuiuuiiiiiiiiiiyuyyttrrww8809776622;<>>:-=%&+OOoX #@@@@@@",
"@@@@@@#XXoO+&%%=-::><<223557900ewwwrtttyyyyuuuuuuuiuiuuyyyyyttrrwww800976532;;,>::-=%$&+OoX. @@@@@@@",
"@@@@@@##.XoO+&%%=-:>><<2435579988ewwwrrtttyyyyuuuyyyuyyyyyttrrrwwq8899775322<<>>:--%%&+OooX  @@@@@@@",
"@@@@@@@ .XooO+&%==-:>,,<;235577908eqwwrwrtrtttttytyttytttrrrwwwq8009776442;;,>>:-==%&+OooX  ##@@@@@@",
"@@@@@@@@..XoO++$%=--:>><<24135777900eqqwwrrrrtrrrrttttrrrwwwqq880997764442<<>>:-==%&++OoX. #@@@@@@@@",
"@@@@@@@@  .ooO++$%==-::>,<<21355779908qeqqqwwwrrrrwwwwwwqwqq880997766442<<,>>:-==%$++OoXX #@@@@@@@@@",
"@@@@@@@@##.XXoO++*%%=-:>>,<;;333557799000q8qeqqqqwwqqqqq88009997766642;;<,>>:--=%$++OOX.. @@@@@@@@@@",
"@@@@@@@@@@#.XooO+&%%=--::>,,;;2246557779990088q8888888800099977766422;;<>>>:-==%$&+OoXX. @@@@@@@@@@@",
"@@@@@@@@@@# .XooO++$%%=-::>>,;;222466677777990900909999997776663312;;;,>>>---=$$&+OooX. #@@@@@@@@@@@",
"@@@@@@@@@@@# .XXoO++&%==--:>>,,,;222433556777777797797777566663222;<<>>>:--==$$++OooX. @@@@@@@@@@@@@",
"@@@@@@@@@@@@@ .XooO++$%%=---:>>,<<<;2214366665555766666633312222;;<>>>::-==%$$++OooX. #@@@@@@@@@@@@@",
"@@@@@@@@@@@@@ ..XoOO++&%%==--::>>,,<<2<2222433363336343314222;;,<>>>>:--==%$&++OOXX..#@@@@@@@@@@@@@@",
"@@@@@@@@@@@@@@@ .XooOO++&%===-:::>>>,<<<2<2;222222242222;2;;;,,>>>>:---==$$&+OOOXXX #@@@@@@@@@@@@@@@",
"@@@@@@@@@@@@@@@  ..Xoo+++&$%===-:::>>>><<,<<<;;;;;;;;;;,;,,,,>>>>:---=%%$$++OOoXX  #@@@@@@@@@@@@@@@@",
"@@@@@@@@@@@@@@@@@ ..XooO++&$%%===-:-:>:>>>>,,<,<<<<,,<,>>>>>>::---===%*$&++OOXXX. #@@@@@@@@@@@@@@@@@",
"@@@@@@@@@@@@@@@@@   .XooOO++&&$%%==---:-::>::>>>>>>>>>>:>::::---===%$$&+OOOoo...#@@@@@@@@@@@@@@@@@@@",
"@@@@@@@@@@@@@@@@@@@ ..XXooOO++&$$%%==-=--:::::::::::::::-:----==%%$$&++OOoOXX. #@@@@@@@@@@@@@@@@@@@@",
"@@@@@@@@@@@@@@@@@@@@@ ..XXooOO++&&$$%%======---------=--====%%%*$$&++OOoOX...##@@@@@@@@@@@@@@@@@@@@@",
"@@@@@@@@@@@@@@@@@@@@@@  ..XoooOO+++&&%%%%%%=============%%%%%%&&+++OOOoXX...#@@@@@@@@@@@@@@@@@@@@@@@",
"@@@@@@@@@@@@@@@@@@@@@@@#  .XXoooOOO++++&*$**%%$*%%%**$$*$%$&+++++OOooXXX.. #@@@@@@@@@@@@@@@@@@@@@@@@",
"@@@@@@@@@@@@@@@@@@@@@@@@##  .XXXooOOOOO++++&&+&&$&&&&&$&+++++OOOoooXXX.  #@@@@@@@@@@@@@@@@@@@@@@@@@@",
"@@@@@@@@@@@@@@@@@@@@@@@@@@@#  .XXXXoooOOOOO+++O++++++++OOOOOOoooXXXX.  #@@@@@@@@@@@@@@@@@@@@@@@@@@@@",
"@@@@@@@@@@@@@@@@@@@@@@@@@@@@@@  ..XXXXXoooOOoOOOOOOOOOOooOoooXXXX..  @@@@@@@@@@@@@@@@@@@@@@@@@@@@@@@",
"@@@@@@@@@@@@@@@@@@@@@@@@@@@@@@@@# . .XXXXXXXXooXXoooXXXoXXXX.X.     @@@@@@@@@@@@@@@@@@@@@@@@@@@@@@@@",
"@@@@@@@@@@@@@@@@@@@@@@@@@@@@@@@@@@@#   ....X.XX.XXX.XX.X..     #@@@@@@@@@@@@@@@@@@@@@@@@@@@@@@@@@@@@",
"@@@@@@@@@@@@@@@@@@@@@@@@@@@@@@@@@@@@@@@##   . ... ...       #@@#@@@@@@@@@@@@@@@@@@@@@@@@@@@@@@@@@@@@"
};
