/* XPM */
static char *result[] = {
/* columns rows colors chars-per-pixel */
"100 100 41 1 ",
"  c #150F1F",
". c #1B0E1E",
"X c #240E1D",
"o c #2C0D1C",
"O c #340D1B",
"+ c #3B0C1A",
"@ c #0F0F20",
"# c #120F20",
"$ c #4E0B17",
"% c #430C19",
"& c #4B0B18",
"* c #540B17",
"= c #5C0A16",
"- c #510B18",
"; c #640A15",
": c #6B0914",
"> c #7F0711",
", c #730913",
"< c #7C0812",
"1 c #8D070F",
"2 c #8B080F",
"3 c #94070E",
"4 c #9B060D",
"5 c #840710",
"6 c #8A0710",
"7 c #830810",
"8 c #890810",
"9 c #A3060C",
"0 c #AC050B",
"q c #B4050A",
"w c #BC0409",
"e c #C60407",
"r c #CB0307",
"t c #C30408",
"y c #C80308",
"u c #D40306",
"i c #DC0205",
"p c #E40204",
"a c #EC0103",
"s c #F30102",
"d c #FF0000",
/* pixels */
"@@@@@@@@@@@@@@@@@@@@@@@@@@@@@@@@@@@@@@@@#@@@####.  #  ######@#@@@@@@@@@@@@@@@@@@@@@@@@@@@@@@@@@@@@@@",
"@@@@@@@@@@@@@@@@@@@@@@@@@@@@@@@@@@@@@@## #.......XX....#X#####@@@@@@@@@@@@@@@@@@@@@@@@@@@@@@@@@@@@@@",
"@@@@@@@@@@@@@@@@@@@@@@@@@@@@@@@@@@@## ...XXXXXXXXXoXXXoXoXXXX..#####@@@@@@@@@@@@@@@@@@@@@@@@@@@@@@@@",
"@@@@@@@@@@@@@@@@@@@@@@@@@@@@@@@## ...XXXoooooOOOOOOOOOoooooXXXX... #@@@@@@@@@@@@@@@@@@@@@@@@@@@@@@@@",
"@@@@@@@@@@@@@@@@@@@@@@@@@@@@@@  ..XXooooOOOO+O+++++++++O+OOOOoooXXX.. #@@@@@@@@@@@@@@@@@@@@@@@@@@@@@",
"@@@@@@@@@@@@@@@@@@@@@@@@@@@ #..XXoooOOO++++%%%%%&%%%%%%%%+%+O+OOOoXXX.. #@@@@@@@@@@@@@@@@@@@@@@@@@@@",
"@@@@@@@@@@@@@@@@@@@@@@@@@@# .XXooOO+++%%%&&$&&$$$$$$-$$$&&%%%%++OOOOoXX.. #@@@@@@@@@@@@@@@@@@@@@@@@@",
"@@@@@@@@@@@@@@@@@@@@@@@@#..XXooOO++%%%&$$--***=*==*==***---$&$%%%++OOoooX.. @@@@@@@@@@@@@@@@@@@@@@@@",
"@@@@@@@@@@@@@@@@@@@@@@# .XXXoO++%%%&$$-**====;;;;;;;;=;====***-*$%%%+OOoooX..###@@@@@@@@@@@@@@@@@@@@",
"@@@@@@@@@@@@@@@@@@@@@#..XooO+++%%$-**==;;;;;;::::::::::;:;;;;==*--$&%%++OoXXX.##@@@@@@@@@@@@@@@@@@@@",
"@@@@@@@@@@@@@@@@@@@# .Xooo++%%&$**===;;;::,,,,,,,,,,,,,,,,:::;;;==**$&%++OOoXX##@@@@@@@@@@@@@@@@@@@@",
"@@@@@@@@@@@@@@@@@@# .XXoO++%%&-*==;;::,,,,,<<>>>>7>>>7>><,,,,:::;;;==*$&%%++ooXX @@@@@@@@@@@@@@@@@@@",
"@@@@@@@@@@@@@@@@@#.XXoOO+%%&-*==;;:,,,,>7777555286286655877><,,,,::;==*-$&%++OoXX. @@@@@@@@@@@@@@@@@",
"@@@@@@@@@@@@@@@@  .XoO++%&$-=;;;:,,,<>>8252113331331333182888>7>,,:::;;=--&%++OoXX. @@@@@@@@@@@@@@@@",
"@@@@@@@@@@@@@@@ .XooO+%%&-===;:,,,>>72221334434444944443333116887><,::;;==-$%%+OooX. @@@@@@@@@@@@@@@",
"@@@@@@@@@@@@@@#..ooO++&$*==;:,,,>7822134449499999090999999444318257>>,,:;;=*$&%++ooX. @@@@@@@@@@@@@@",
"@@@@@@@@@@@@@@.XXo++%&&*==;:,,<75233344999900000q0qqq0000099944411687>,,::;=*-&%%OOoX. @@@@@@@@@@@@@",
"@@@@@@@@@@@@@.XXoO+%&&*;;:,,<788333499900qqqwqwwwwwwqwwqqqq009944441887>,,:;==-$%+OOoX  @@@@@@@@@@@@",
"@@@@@@@@@@@@.XXOO+%&-*=;:,,>78233449000qqwwwwttttttttttwwwqwqq0099441288>,,:;;=-&%%OOXX  @@@@@@@@@@@",
"@@@@@@@@@@@ .XoO+%&-*;::,,>881349900qqwwwtetrrrrurrrrrryeeewwwqq0099441687<,:;;**&%+OOXX @@@@@@@@@@@",
"@@@@@@@@@@ .XoO+%%&=;::,<>86344990qqwwttrrruuuuuuiuuiuiuurrreewwqq09944368><,::;=$&%+OooX @@@@@@@@@@",
"@@@@@@@@@@.XXO+%&*==;:,<>8634990qqwtttruuuiuiipiipppppiiiiuurrretwwq09943288>,::==*&%+OoX. @@@@@@@@@",
"@@@@@@@@@.XoOO%%&*=;:,,78634990qwwteruuuiipppaapaaaaapapppiiuirrtewwqq9993187<,::==&&%OOoX  @@@@@@@@",
"@@@@@@@@ .XoO+%&==;:,<78334900qwterruiipppaaassssssssssaaaappiiuurrtwqq0944387<,:;==$%%+oXX @@@@@@@@",
"@@@@@@@#.XoO+%&*=;:,<>833990qqwteruiippasssssddddddddddssssaappiiurrtwqq0044327<,:;=*&%+OoX. @@@@@@@",
"@@@@@@@ .oOO%&$*;;,,7863490qwwtruuippaasssdddddddddddddddddsssaappuurrtwq0944167<,:;=*&%+OoX @@@@@@@",
"@@@@@@#.XoO+%&==;,,<8633900wttruuipasssddddddddddddddddddddddssaapiiurrwwq0943167<::==-&+OoXX @@@@@@",
"@@@@@@ XXO+%&*=;:,<7634900wwtruippasssdddddddddddddddddddddddddssappiurrwwq004317<,:;=*$&+OoX @@@@@@",
"@@@@@ .XoO+&$*;:,,7833900wttruiiasssddddddddddddddddddddddddddddsssapiuuttw0094127<,:;=-&++oX. @@@@@",
"@@@@@ .oO+%$*=;:,<863990qwtyuipaasddddddddddddddddddddddddddddddddssapiuuttwq94432<<,;=*$%+OoX #@@@@",
"@@@@#.XoO+&$=;:,<763490qttruipassddddddddddddddddddddddddddddddddddssapiuutwqq04327<,:;=-&%Ooo.#@@@@",
"@@@@#XXO+%&*=;:,783490qwtyuippasddddddddddddddddddddddddddddddddddddsaapiurtwq094327<,:==&%+OoX.@@@@",
"@@@@ XoO+%**;:,<883400qtyuupaasddddddddddddddddddddddddddddddddddddddssapirytwq043187,:;=*%+OoX.#@@@",
"@@@ .oo+%&-=;:,783490qwtruipasddddddddddddddddddddddddddddddddddddddddssppuuywq094317<,;;*$%+Oo. @@@",
"@@@ XXO+%$*;:,<78340qwtyuipassdddddddddddddddddddddddddddddddddddddddddsapiuytw009318<,:;*$&+OoX.@@@",
"@@@.XoO+&-=;:,>86490qwtriiassddddddddddddddddddddddddddddddddddddddddddssapiuywwq9418><::=*&%+oX.#@@",
"@@@.Xo+%&*=:,<<2349qwttuipasddddddddddddddddddddddddddddddddddddddddddddsspiurtwq04488<,:=*&%+Oo.#@@",
"@@ XoO+%$*=:,<86490qttrippsddddddddddddddddddddddddddddddddddddddddddddddsapiutwq09418>,:;=$%+OoX.@@",
"@@ XoO+%$=;:<<81490qwyuiaasddddddddddddddddddddddddddddddddddddddddddddddssaiuytw094387,:;=*&+OoX.@@",
"@@.XoO%&-=::<76349qwtruppssddddddddddddddddddddddddddddddddddddddddddddddssaiiutwq04428<,:;$&%+OX.#@",
"@#.XO+%&*;;,>73390qwrripasddddddddddddddddddddddddddddddddddddddddddddddddsapirrwq09412>,:;*&%+oo. @",
"@ .Xo+%$*;:,<81490qwruipssdddddddddddddddddddddddddddddddddddddddddddddddddappurtwq9438>,:;=$%%OXX @",
"@ XoO+%$==:<>8149qqtruiassdddddddddddddddddddddddddddddddddddddddddddddddddsapirtwq94327<:;=&&%OoX @",
"@ .oO+%-=;:,>83400werupasddddddddddddddddddddddddddddddddddddddddddddddddddsapuurwq09387<,;=*&%OoX.@",
"@ XoO+&*=;,,82390qweuupasddddddddddddddddddddddddddddddddddddddddddddddddddsapiuewq09428<,;=*$+OoX.#",
"@.XoO%&*=;,<76440qweuipasdddddddddddddddddddddddddddddddddddddddddddddddddddspiurtw09428<,:;*&%+oX.#",
"@.XoO+&-=::<76490qwruipsdddddddddddddddddddddddddddddddddddddddddddddddddddssapurtq09428>,:==$%+OX.#",
"@.Xo+%&*=:,>51490qtruipssdddddddddddddddddddddddddddddddddddddddddddddddddddsppurtw09412>,:=*&%+OX.#",
"@.Xo+%&*=:,<72490wwruipssdddddddddddddddddddddddddddddddddddddddddddddddddddsaiurtwq9438<,:;*$%OOo.@",
"#.XoO%&*=:,<73490qtyuipsddddddddddddddddddddddddddddddddddddddddddddddddddddsapurtq09436>,:;=$%+oX. ",
"#.oo+%$*=;,<53490wwruiassdddddddddddddddddddddddddddddddddddddddddddddddddddspiireqq9435>,:==&%+Oo. ",
"#.XoO%$*;:,<52440qtruipsddddddddddddddddddddddddddddddddddddddddddddddddddddsapurtwq9435>,:;*$%+OX. ",
"@.Xo++&-=:,<53440qwruiaasdddddddddddddddddddddddddddddddddddddddddddddddddddspiureq09436>,:=*$%+oX.#",
"@.XoO%&-=::<52390qteuipasdddddddddddddddddddddddddddddddddddddddddddddddddddspiurww09415<,:;*$%+OX.#",
"@.XoO+&-=;:<71390qweripasddddddddddddddddddddddddddddddddddddddddddddddddddsapiuywq09367<,;;*$++oX.#",
"@ .oO%&-=;:<71349qweuupasddddddddddddddddddddddddddddddddddddddddddddddddddsspiuytq09417<,;=-&%+oX.#",
"@ .oO+%-=;:<<2349qwtrupasddddddddddddddddddddddddddddddddddddddddddddddddddsapiuewq04467<:;=*&+OoX @",
"@ XXO+%$*;:,<23490qtruipssddddddddddddddddddddddddddddddddddddddddddddddddssaiurtwq94327,:;=$&+OoX.#",
"@#.oO+%&*=:,<22490qwruipasddddddddddddddddddddddddddddddddddddddddddddddddsspiurww09435>,:;=$%+OX. #",
"##.XoO%&*;;,<72390qwtrupassdddddddddddddddddddddddddddddddddddddddddddddddsapirrwq09317>,:;*$%+Oo.@#",
"@@ XoO+&-=;:<<23490wtruipasddddddddddddddddddddddddddddddddddddddddddddddssapurewq99317<,;=*&%OoX.@@",
"@@ XoO+%$=;:,<53490qweuipasddddddddddddddddddddddddddddddddddddddddddddddsapiurwqq94327,:;=-%%OoX.@@",
"@@ .oo+%&*=:,<71390qwtruipssddddddddddddddddddddddddddddddddddddddddddddssaiurewq09317<,:;=$%+OoX @@",
"@@ .XoO%&-=;:<<23490qweuipasddddddddddddddddddddddddddddddddddddddddddddsapiurtw094327<,:=-&%+OX.#@@",
"@@@ XoO+%*=;:,<734990wyruipasddddddddddddddddddddddddddddddddddddddddddssppuutwq09428<,:;=$&+OoX.#@@",
"@@@ .oo+%&*=;:<763490wtyuippssdddddddddddddddddddddddddddddddddddddddddsapirttw099328>,:=*$%+OoX @@@",
"@@@@.XoO+&*=;:,<864900wtyuipassdddddddddddddddddddddddddddddddddddddddsapiurtwq09438>,:;=-&%+oX. @@@",
"@@@@..oO+%$*;:,,783490qwtruipasddddddddddddddddddddddddddddddddddddddsapiiretq004328>,:;=-%%OoX.@@@@",
"@@@@#.Xo+%%*=;:,<76440qqweuuipasddddddddddddddddddddddddddddddddddddsappiuetqq09318>,:;;*&%+OX..@@@@",
"@@@@  XoO+%$*;::<783399qwtrruiaassddddddddddddddddddddddddddddddddssaaiirrtwq094367>,:==-&+OoX.#@@@@",
"@@@@@ .oo++&*=;:,<763490qwteuuipassddddddddddddddddddddddddddddddssaaiiurtwq094418<,:;=*&%+Oo..@@@@@",
"@@@@@@.XoO+%&*=;:,7733400qwtruuppasssdddddddddddddddddddddddddddssapiuuretqq993368,,:;*$%+OoX.#@@@@@",
"@@@@@@#.Xo++%-=;:,<<213990qwtyuuippassddddddddddddddddddddddddsssapiuurtwqq09432><<:;=-&%+Oo..@@@@@@",
"@@@@@@# XoO+%$*=;:,>721490qqwtrruippassssddddddddddddddddddssssappiuurtww0094317<<:;=*$%++oX. @@@@@@",
"@@@@@@@ .XoO+%-*=;:,<7234990qwwyruiiipaassssdddddddddddddssssappiuurytwq0044327><:;==$%%+oX. @@@@@@@",
"@@@@@@@@ .oO+%%-==;,,77264990qwweyruiippasssssssssdsdsssssaappiiuurrtwq00943257,,;;=-&++ooX.#@@@@@@@",
"@@@@@@@@ .XoO+%$-=;;:<>7234990qwwteyuuiipppaaaasssassaaaapppiiuurrtwqq00441287<,:;=-$%++oX.@@@@@@@@@",
"@@@@@@@@@ XXoO+%&-=;::,<8264490qqwwtyrruuiiiippppppapppppiiuurrrewwqq0944128><::;=*$%++ooX @@@@@@@@@",
"@@@@@@@@@@ .Xo++&&-=;::<<76134490qqwweyryuuuiiiiiiiiiiiiuuuurytwwwq099441687,,:;=*$&++Oo.. @@@@@@@@@",
"@@@@@@@@@@#.XXOO+&$*=;::,>721149990qqwwweeerrrruuuuuuurrrrtttwwwq009943128>,,:;=*$&++OoX  @@@@@@@@@@",
"@@@@@@@@@@##.XXOO+&&*=;;:,,7723349900qqwwwwteeeerryyyyeettwwwqq0099433127>,,:;=**&%++oXX @@@@@@@@@@@",
"@@@@@@@@@@@@ .XoO++&$-*;::,<<72133449900qqqwwwwwwwttwwwwwwq0q09944431277<,::;=*-%%+OoX  @@@@@@@@@@@@",
"@@@@@@@@@@@@@ .XoO++&&-=;;:,,<772133449900000qqqqqqqqqq000009994433257<,,::==*$%%+OoXX @@@@@@@@@@@@@",
"@@@@@@@@@@@@@#..XoOO+&&$*=;::,<<>86233444999090000000009999444411277<<,,;;==-$&++OoXX @@@@@@@@@@@@@@",
"@@@@@@@@@@@@@@@ .XoOO+&&-*=;;:,,<<78661133444494999999494444111257><,,::;=*-$%++OoXX. @@@@@@@@@@@@@@",
"@@@@@@@@@@@@@@@@ .Xoo++%&$-*=;::,,,>7766212333343443333331222787<<,:::;==*-&%%+OoXX @@@@@@@@@@@@@@@@",
"@@@@@@@@@@@@@@@@@ .XooO++&&$*==;;::,,<<7777212261111112888787><,,,::;==*-$%%+OooX. @@@@@@@@@@@@@@@@@",
"@@@@@@@@@@@@@@@@@@ .XXoOO+%&$-*==;:::,,,<><777778555777>>><<,,,,:;;;==-$&%++OooX.  @@@@@@@@@@@@@@@@@",
"@@@@@@@@@@@@@@@@@@##..XoOO++%%$-*==;;;::,:,,,<,<<<<<,<<,<,,,:::;;==**$&%+++ooo.. @@@@@@@@@@@@@@@@@@@",
"@@@@@@@@@@@@@@@@@@@@# .XooO++%%&$-*===;;;:::::,,,:,,,:::::;;;;===--$&%%++OooX.  @@@@@@@@@@@@@@@@@@@@",
"@@@@@@@@@@@@@@@@@@@@@@ ..XooO++%%%$--*====;;;;;:;::;;;:;;====**-$$&&%%+OooXX. @@@@@@@@@@@@@@@@@@@@@@",
"@@@@@@@@@@@@@@@@@@@@@@@#..XXooOO++%%&$&$***===============*--$$&%%+++OoooX.  @@@@@@@@@@@@@@@@@@@@@@@",
"@@@@@@@@@@@@@@@@@@@@@@@@@#..XXooOO+++%%&&&$$--*-*-*-*----$$&%%%%++OOooXX.   @@@@@@@@@@@@@@@@@@@@@@@@",
"@@@@@@@@@@@@@@@@@@@@@@@@@@@  .XXoooOO+++%%%%%&&&&&&&$&&%%%%%++++OOooXX..   @@@@@@@@@@@@@@@@@@@@@@@@@",
"@@@@@@@@@@@@@@@@@@@@@@@@@@@@# ..oXooOoOO+O++++%%%%%%%++++++OOOOooXXX.. #@@@@@@@@@@@@@@@@@@@@@@@@@@@@",
"@@@@@@@@@@@@@@@@@@@@@@@@@@@@@@@##.#.XXXoooOOOOOOOOOOO+OOoOOoooXXX..  @@#@@@@@@@@@@@@@@@@@@@@@@@@@@@@",
"@@@@@@@@@@@@@@@@@@@@@@@@@@@@@@@@@##....XXXXooooooOoooooooXoXX.... @@@@@@@@@@@@@@@@@@@@@@@@@@@@@@@@@@",
"@@@@@@@@@@@@@@@@@@@@@@@@@@@@@@@@@@@@@# . .X..X.XXXXXXX.X.....  #@@@@@@@@@@@@@@@@@@@@@@@@@@@@@@@@@@@@",
"@@@@@@@@@@@@@@@@@@@@@@@@@@@@@@@@@@@@@@@@###   .. . ...   ###@@@@@@@@@@@@@@@@@@@@@@@@@@@@@@@@@@@@@@@@",
"@@@@@@@@@@@@@@@@@@@@@@@@@@@@@@@@@@@@@@@@@@@@@@@@@@@@@@@@@@@@@@@@@@@@@@@@@@@@@@@@@@@@@@@@@@@@@@@@@@@@"
};
