/* XPM */
static char *result[] = {
/* columns rows colors chars-per-pixel */
"25 25 10 1 ",
"  c #0F0F20",
". c #660000",
"X c #6B0000",
"o c #700000",
"O c #750000",
"+ c #7A0000",
"@ c #800000",
"# c #850000",
"$ c #8A0000",
"% c #8F0000",
/* pixels */
"                         ",
"                         ",
"         .......         ",
"       XXXXXXXXXXX       ",
"      ooooooooooooo      ",
"     OOOOOOOOOOOOOOO     ",
"    oO+++++++++++++Oo    ",
"   XoO+@@@@@@@@@@@+OoX   ",
"   XoO+@#########@+OoX   ",
"  .XoO+@#$$$$$$$#@+OoX.  ",
"  .XoO+@#$%%%%%$#@+OoX.  ",
"  .XoO+@#$%%%%%$#@+OoX.  ",
"  .XoO+@#$%%%%%$#@+OoX.  ",
"  .XoO+@#$%%%%%$#@+OoX.  ",
"  .XoO+@#$%%%%%$#@+OoX.  ",
"  .XoO+@#$$$$$$$#@+OoX.  ",
"   XoO+@#########@+OoX   ",
"   XoO+@@@@@@@@@@@+OoX   ",
"    oO+++++++++++++Oo    ",
"     OOOOOOOOOOOOOOO     ",
"      ooooooooooooo      ",
"       XXXXXXXXXXX       ",
"         .......         ",
"                         ",
"                         "
};
