/* XPM */
static char *result[] = {
/* columns rows colors chars-per-pixel */
"25 25 2 1 ",
"  c yellow",
". c None",
/* pixels */
".........................",
".........................",
".........................",
".........................",
".........       .........",
"........          .......",
".......            ......",
"......              .....",
".....              ......",
".....            ........",
".....         ...........",
".....       .............",
".....        ............",
".....          ..........",
".....             .......",
"......              .....",
"......             ......",
".......           .......",
"........         ........",
"...........    ..........",
".........................",
".........................",
".........................",
".........................",
"........................."
};
