/* XPM */
static char *result[] = {
/* columns rows colors chars-per-pixel */
"100 100 23 1 ",
"  c #0F0F20",
". c #171720",
"X c #1D1D20",
"o c #232320",
"O c #272720",
"+ c #55551F",
"@ c #474720",
"# c #686820",
"$ c #8D8D1F",
"% c #90901F",
"& c #92921F",
"* c #93931F",
"= c #94941F",
"- c #CACA1D",
"; c #CFCF1D",
": c #D2D21D",
"> c #D5D51E",
", c #E5E51D",
"< c #E7E71D",
"1 c #EEEE1D",
"2 c #F1F11D",
"3 c #FEFE1C",
"4 c #FFFF1C",
/* pixels */
"                                                                                                    ",
"                                                                                                    ",
"                                                                                                    ",
"                                                                                                    ",
"                                                                                                    ",
"                                                                                                    ",
"                                                                                                    ",
"                                                                                                    ",
"                                                                                                    ",
"                                                                                                    ",
"                                                                                                    ",
"                                                                                                    ",
"                                                                                                    ",
"                                                                                                    ",
"                                                                                                    ",
"                                                                                                    ",
"                                                                                                    ",
"                                                                                                    ",
"                                                                                                    ",
"                                                                                                    ",
"                                              4444444444:                                           ",
"                                          444444444444444444                                        ",
"                                      44444444444444444444444444                                    ",
"                                     4444444444444444444444444444                                   ",
"                                   44444444444444444444444444444444                                 ",
"                                  4444444444444444444444444444444444#                               ",
"                                44444444444444444444444444444444444444                              ",
"                               4444444444444444444444444444444444444444.                            ",
"                               44444444444444444444444444444444444444444                            ",
"                             44444444444444444444444444444444444444444444@                          ",
"                            4444444444444444444444444444444444444444444444                          ",
"                           444444444444444444444444444444444444444444444444                         ",
"                           4444444444444444444444444444444444444444444444444                        ",
"                          44444444444444444444444444444444444444444444444444                        ",
"                         4444444444444444444444444444444444444444444444444444                       ",
"                         4444444444444444444444444444444444444444444444444444X                      ",
"                        444444444444444444444444444444444444444444444444444444                      ",
"                       44444444444444444444444444444444444444444444444444444                        ",
"                       444444444444444444444444444444444444444444444444444                          ",
"                       4444444444444444444444444444444444444444444444444&                           ",
"                       444444444444444444444444444444444444444444444444                             ",
"                      4444444444444444444444444444444444444444444444                                ",
"                      44444444444444444444444444444444444444444444$                                 ",
"                      4444444444444444444444444444444444444444444                                   ",
"                     -444444444444444444444444444444444444444%                                      ",
"                     444444444444444444444444444444444444444,                                       ",
"                     4444444444444444444444444444444444444=                                         ",
"                     444444444444444444444444444444444444                                           ",
"                     444444444444444444444444444444444                                              ",
"                     44444444444444444444444444444444                                               ",
"                     4444444444444444444444444444444                                                ",
"                     44444444444444444444444444444444                                               ",
"                     444444444444444444444444444444444444                                           ",
"                     4444444444444444444444444444444444444                                          ",
"                     444444444444444444444444444444444444444                                        ",
"                     ;444444444444444444444444444444444444444                                       ",
"                      4444444444444444444444444444444444444444444                                   ",
"                      44444444444444444444444444444444444444444444                                  ",
"                      4444444444444444444444444444444444444444444444                                ",
"                       444444444444444444444444444444444444444444444444                             ",
"                       4444444444444444444444444444444444444444444444444                            ",
"                       444444444444444444444444444444444444444444444444444                          ",
"                       44444444444444444444444444444444444444444444444444444                        ",
"                        444444444444444444444444444444444444444444444444444444                      ",
"                         44444444444444444444444444444444444444444444444444442                      ",
"                         4444444444444444444444444444444444444444444444444444                       ",
"                          44444444444444444444444444444444444444444444444444+                       ",
"                           4444444444444444444444444444444444444444444444444                        ",
"                           444444444444444444444444444444444444444444444444                         ",
"                            4444444444444444444444444444444444444444444444$                         ",
"                            o444444444444444444444444444444444444444444443                          ",
"                              *44444444444444444444444444444444444444444                            ",
"                               44444444444444444444444444444444444444444                            ",
"                                44444444444444444444444444444444444444*                             ",
"                                  44444444444444444444444444444444444                               ",
"                                   44444444444444444444444444444444O                                ",
"                                    X44444444444444444444444444441                                  ",
"                                      444444444444444444444444444                                   ",
"                                          444444444444444444<                                       ",
"                                             >44444444444                                           ",
"                                                                                                    ",
"                                                                                                    ",
"                                                                                                    ",
"                                                                                                    ",
"                                                                                                    ",
"                                                                                                    ",
"                                                                                                    ",
"                                                                                                    ",
"                                                                                                    ",
"                                                                                                    ",
"                                                                                                    ",
"                                                                                                    ",
"                                                                                                    ",
"                                                                                                    ",
"                                                                                                    ",
"                                                                                                    ",
"                                                                                                    ",
"                                                                                                    ",
"                                                                                                    ",
"                                                                                                    "
};
