/* XPM */
static char *result[] = {
/* columns rows colors chars-per-pixel */
"25 25 12 1 ",
"  c #15154D",
". c #151554",
"X c #15155C",
"o c #151563",
"O c #15156B",
"+ c #151573",
"@ c #15157A",
"# c #151582",
"$ c #15158A",
"% c #151591",
"& c #151596",
"* c #15159C",
/* pixels */
"                         ",
" ....................... ",
" .XXXXXXXXXXXXXXXXXXXXX. ",
" .XoooooooooooooooooooX. ",
" .XoOOOOOOOOOOOOOOOOOoX. ",
" .XoO+++++++++++++++OoX. ",
" .XoO+@@@@@@@@@@@@@+OoX. ",
" .XoO+@###########@+OoX. ",
" .XoO+@#$$$$$$$$$#@+OoX. ",
" .XoO+@#$%%%%%%%$#@+OoX. ",
" .XoO+@#$%&&&&&%$#@+OoX. ",
" .XoO+@#$%&***&%$#@+OoX. ",
" .XoO+@#$%&***&%$#@+OoX. ",
" .XoO+@#$%&***&%$#@+OoX. ",
" .XoO+@#$%&&&&&%$#@+OoX. ",
" .XoO+@#$%%%%%%%$#@+OoX. ",
" .XoO+@#$$$$$$$$$#@+OoX. ",
" .XoO+@###########@+OoX. ",
" .XoO+@@@@@@@@@@@@@+OoX. ",
" .XoO+++++++++++++++OoX. ",
" .XoOOOOOOOOOOOOOOOOOoX. ",
" .XoooooooooooooooooooX. ",
" .XXXXXXXXXXXXXXXXXXXXX. ",
" ....................... ",
"                         "
};
